<?xml version="1.0" encoding="UTF-8"?>
<svg xmlns="http://www.w3.org/2000/svg" xmlns:xlink="http://www.w3.org/1999/xlink" width="2250pt" height="2250.000011pt" viewBox="0 0 2250 2250.000011" version="1.2">
<defs>
<clipPath id="clip1">
  <path d="M 99 229 L 2152 229 L 2152 2040.660156 L 99 2040.660156 Z M 99 229 "/>
</clipPath>
<clipPath id="clip2">
  <path d="M 99 261 L 2152 261 L 2152 2072.917969 L 99 2072.917969 Z M 99 261 "/>
</clipPath>
</defs>
<g id="surface1">
<g clip-path="url(#clip1)" clip-rule="nonzero">
<path style=" stroke:none;fill-rule:nonzero;fill:rgb(28.62854%,43.919373%,32.548523%);fill-opacity:1;" d="M 1933.410156 1123.761719 C 1765.625 1470.894531 1458.011719 1754.804688 1125.855469 1944.398438 C 793.71875 1754.804688 486.125 1470.894531 318.320312 1123.761719 C 259.292969 1001.613281 233.40625 861.953125 254.191406 726.996094 C 276.734375 580.460938 428.484375 442.011719 570.316406 405.191406 C 788.242188 348.644531 1029.832031 499.484375 1118.046875 700.152344 L 1117.1875 700.875 C 1116.660156 701.402344 1116.132812 701.953125 1115.605469 702.480469 C 1108.808594 701.796875 1101.507812 704.039062 1095.679688 709.574219 C 1064.121094 739.671875 1033.683594 771.902344 1004.585938 806.195312 L 1003.816406 807.292969 L 1002.890625 808.195312 C 981.515625 833.261719 960.90625 859.515625 941.070312 886.777344 C 932.582031 881.441406 921.34375 876.9375 906.519531 874.167969 C 877.730469 868.917969 848.984375 863.6875 820.21875 858.460938 C 820.328125 858.546875 801.414062 854.902344 780.542969 861.976562 C 772.691406 824.738281 766.160156 786.730469 761.125 747.976562 L 760.839844 746.550781 C 760.773438 746.023438 760.816406 745.496094 760.75 744.945312 C 753.957031 693.382812 749.753906 640.527344 748.347656 586.613281 C 747.953125 568.6875 736.890625 556.933594 723.210938 560.800781 C 722.152344 561.109375 721.097656 561.414062 720.019531 561.722656 C 706.363281 565.589844 695.433594 584 696.070312 602.386719 C 698.09375 657.488281 702.953125 711.464844 710.410156 764.167969 C 710.496094 764.695312 710.652344 765.15625 710.738281 765.664062 C 710.804688 766.191406 710.761719 766.71875 710.847656 767.246094 C 718.480469 821.949219 728.949219 875.246094 741.96875 926.9375 C 744.785156 938.144531 752.527344 944.996094 761.191406 945.808594 C 751.644531 1023.691406 747.972656 1102.144531 750.171875 1180.484375 L 750.238281 1181.277344 L 750.214844 1182.285156 C 755.097656 1332.664062 781.621094 1482.515625 829.785156 1627.097656 C 836.449219 1647.132812 857.191406 1657.808594 875.507812 1651.132812 C 876.9375 1650.625 878.347656 1650.121094 879.777344 1649.59375 C 898.097656 1642.914062 907.421875 1622.285156 901.132812 1603.371094 C 861.058594 1483.132812 836.734375 1359.09375 828.113281 1234.199219 C 833.4375 1233.871094 838.757812 1233.539062 844.082031 1233.1875 C 852.59375 1356.699219 876.652344 1479.417969 916.285156 1598.339844 C 922.550781 1617.210938 941.992188 1627.316406 959.148438 1621.054688 C 960.488281 1620.570312 961.808594 1620.089844 963.152344 1619.628906 C 980.304688 1613.367188 988.992188 1593.945312 983.054688 1576.128906 C 939.839844 1446.421875 916.042969 1311.992188 911.6875 1177.078125 L 911.601562 1176.507812 L 911.621094 1175.453125 C 909.378906 1103.4375 912.722656 1031.292969 921.539062 959.671875 C 922.066406 960.113281 922.597656 960.550781 923.125 960.96875 C 933.546875 969.515625 948.238281 966.460938 956.113281 954.707031 C 982.261719 915.667969 1010.105469 878.738281 1039.355469 843.984375 L 1040.058594 842.949219 L 1041.003906 842.027344 C 1068.363281 809.359375 1097 778.667969 1126.667969 749.910156 C 1151.738281 777.261719 1176.019531 805.953125 1199.289062 836.097656 L 1200.144531 837.039062 L 1200.828125 838.117188 C 1228.1875 874.015625 1254.160156 911.824219 1278.527344 951.414062 C 1283.785156 959.957031 1292.734375 964.15625 1301.355469 963.011719 C 1306.875 1015.605469 1309.558594 1068.398438 1309.539062 1121.167969 C 1295.15625 1188.351562 1276.328125 1253.578125 1253.347656 1316.429688 C 1267.75 1318.320312 1282.136719 1320.210938 1296.519531 1322.097656 C 1285.984375 1402.175781 1269.003906 1481.617188 1245.515625 1559.628906 C 1240.261719 1577.09375 1250.664062 1596.140625 1269.179688 1602.226562 C 1270.609375 1602.6875 1272.0625 1603.171875 1273.492188 1603.632812 C 1292.007812 1609.742188 1311.933594 1599.765625 1317.519531 1581.246094 C 1342.175781 1499.347656 1359.988281 1415.949219 1371.050781 1331.898438 C 1376.351562 1332.578125 1381.628906 1333.28125 1386.910156 1333.960938 C 1375.734375 1418.894531 1357.722656 1503.125 1332.804688 1585.839844 C 1327.242188 1604.402344 1336.367188 1623.957031 1353.742188 1629.667969 C 1355.085938 1630.105469 1356.425781 1630.546875 1357.769531 1630.984375 C 1375.121094 1636.699219 1394.34375 1625.601562 1400.214844 1606.09375 C 1426.210938 1519.734375 1445.015625 1431.789062 1456.667969 1343.144531 C 1468.875 1344.75 1481.082031 1346.351562 1493.289062 1347.957031 C 1491.460938 1269.503906 1484.183594 1192.195312 1471.734375 1116.511719 L 1470.898438 1116.53125 C 1470.570312 1057.613281 1467.136719 998.710938 1460.585938 940.078125 C 1461.222656 940.429688 1461.882812 940.78125 1462.542969 941.128906 C 1474.660156 947.65625 1488.382812 941.152344 1492.980469 926.167969 C 1508.199219 876.628906 1521.21875 825.550781 1531.839844 773.066406 L 1532.015625 771.574219 C 1532.148438 771.066406 1532.347656 770.628906 1532.433594 770.101562 C 1542.417969 719.375 1550.160156 667.351562 1555.460938 614.183594 C 1557.308594 596.457031 1547.609375 577.957031 1534.195312 573.277344 C 1533.140625 572.90625 1532.105469 572.554688 1531.070312 572.179688 C 1517.632812 567.5 1505.734375 578.089844 1504.152344 595.421875 C 1499.488281 647.601562 1492.386719 698.679688 1483.082031 748.460938 L 1482.929688 749.976562 L 1482.535156 751.382812 C 1475.519531 787.742188 1467.269531 823.398438 1457.945312 858.351562 C 1448.203125 855.757812 1436.128906 855.097656 1421.21875 857.667969 C 1392.386719 862.4375 1363.53125 867.203125 1334.675781 871.972656 C 1334.566406 871.90625 1315.914062 875.265625 1298.210938 887.527344 C 1279.320312 858.964844 1259.636719 831.351562 1239.183594 804.769531 L 1238.324219 803.867188 L 1237.597656 802.703125 C 1210.175781 767.53125 1181.453125 734.136719 1151.628906 702.609375 C 1147.230469 697.933594 1141.753906 695.316406 1136.210938 694.570312 C 1226.40625 496.714844 1465.511719 349.171875 1681.414062 405.191406 C 1823.246094 442.011719 1974.996094 580.460938 1997.5625 726.996094 C 2018.324219 861.953125 1992.4375 1001.613281 1933.410156 1123.761719 Z M 2143.570312 619.085938 C 2117.246094 448.011719 1940.070312 286.359375 1774.488281 243.390625 C 1512.089844 175.285156 1220.3125 364.703125 1125.875 609.855469 C 1031.417969 364.703125 739.636719 175.285156 477.261719 243.390625 C 311.65625 286.359375 134.503906 448.011719 108.179688 619.085938 C 83.898438 776.648438 114.117188 939.703125 183.066406 1082.304688 C 378.976562 1487.59375 738.097656 1819.0625 1125.875 2040.425781 C 1513.652344 1819.0625 1872.796875 1487.59375 2068.6875 1082.304688 C 2137.613281 939.703125 2167.828125 776.648438 2143.570312 619.085938 "/>
</g>
<path style=" stroke:none;fill-rule:nonzero;fill:rgb(28.62854%,43.919373%,32.548523%);fill-opacity:1;" d="M 860.355469 842.402344 C 901.375 850.023438 942.105469 816.367188 955.101562 767.925781 C 967.945312 719.460938 949.539062 669.636719 910.191406 655.839844 C 870.914062 642.042969 823.828125 674.425781 809.265625 729.085938 C 794.640625 783.742188 819.449219 834.820312 860.355469 842.402344 "/>
<path style=" stroke:none;fill-rule:nonzero;fill:rgb(28.62854%,43.919373%,32.548523%);fill-opacity:1;" d="M 1322.710938 661.660156 C 1282.949219 674.25 1262.714844 722.492188 1274.152344 770.058594 C 1285.71875 817.574219 1325.679688 850.949219 1366.828125 844.027344 C 1407.867188 837.105469 1433.753906 787.875 1420.84375 734.664062 C 1408.023438 681.433594 1362.386719 649.09375 1322.710938 661.660156 "/>
<path style=" stroke:none;fill-rule:nonzero;fill:rgb(28.62854%,43.919373%,32.548523%);fill-opacity:1;" d="M 1103.203125 1152.453125 C 1130.847656 1152.453125 1153.277344 1128.945312 1153.277344 1099.925781 C 1153.277344 1070.925781 1130.847656 1047.417969 1103.203125 1047.417969 C 1075.535156 1047.417969 1053.125 1070.925781 1053.125 1099.925781 C 1053.125 1128.945312 1075.535156 1152.453125 1103.203125 1152.453125 "/>
<path style=" stroke:none;fill-rule:nonzero;fill:rgb(28.62854%,43.919373%,32.548523%);fill-opacity:1;" d="M 1254.664062 1036.234375 L 1252.90625 1035.269531 C 1245.386719 1031.09375 1235.6875 1034.191406 1231.242188 1042.1875 L 1191.414062 1114.421875 L 1191.085938 1115.171875 L 1190.644531 1115.828125 L 1161.21875 1168.644531 C 1155.058594 1166.445312 1147.296875 1164.996094 1137.222656 1165.019531 L 1079.007812 1165.019531 C 1079.007812 1165.019531 1066.339844 1165.019531 1053.496094 1170.53125 L 1025.28125 1115.390625 L 1024.839844 1114.710938 L 1024.554688 1113.960938 L 986.683594 1040.695312 C 982.503906 1032.542969 972.914062 1029.117188 965.242188 1033.050781 L 963.457031 1033.949219 C 955.785156 1037.859375 952.96875 1047.660156 957.148438 1055.789062 L 995.019531 1129.054688 L 995.4375 1129.714844 L 995.746094 1130.484375 L 1034.695312 1206.652344 C 1037.507812 1212.121094 1043.09375 1215.175781 1048.878906 1215.066406 L 1048.570312 1269.546875 L 1019.496094 1389.523438 L 1048.417969 1389.523438 L 1048.417969 1533.265625 C 1048.417969 1544.054688 1058.90625 1552.796875 1071.863281 1552.796875 L 1074.851562 1552.796875 C 1087.804688 1552.796875 1098.296875 1544.054688 1098.296875 1533.265625 L 1098.296875 1389.523438 L 1108.917969 1389.523438 L 1108.917969 1533.265625 C 1108.917969 1544.054688 1118.75 1552.796875 1130.847656 1552.796875 L 1133.683594 1552.796875 C 1145.800781 1552.796875 1155.632812 1544.054688 1155.632812 1533.265625 L 1155.632812 1389.523438 L 1180.089844 1389.523438 L 1156.136719 1267.59375 L 1155.632812 1267.59375 L 1155.632812 1212.03125 L 1156.820312 1212.691406 C 1164.339844 1216.867188 1173.820312 1214.164062 1178.019531 1206.652344 L 1219.632812 1131.910156 L 1219.960938 1131.1875 L 1220.421875 1130.503906 L 1260.230469 1058.292969 C 1264.695312 1050.296875 1262.1875 1040.410156 1254.664062 1036.234375 "/>
<g clip-path="url(#clip2)" clip-rule="nonzero">
<path style=" stroke:none;fill-rule:nonzero;fill:rgb(79.998779%,71.369934%,47.839355%);fill-opacity:1;" d="M 1933.410156 1156.015625 C 1765.625 1503.152344 1458.011719 1787.058594 1125.855469 1976.65625 C 793.71875 1787.058594 486.125 1503.152344 318.320312 1156.015625 C 259.292969 1033.867188 233.40625 894.210938 254.191406 759.253906 C 276.734375 612.71875 428.484375 474.269531 570.316406 437.449219 C 788.242188 380.902344 1029.832031 531.742188 1118.046875 732.40625 L 1117.1875 733.132812 C 1116.660156 733.660156 1116.132812 734.207031 1115.605469 734.734375 C 1108.808594 734.054688 1101.507812 736.296875 1095.679688 741.832031 C 1064.121094 771.929688 1033.683594 804.160156 1004.585938 838.453125 L 1003.816406 839.550781 L 1002.890625 840.453125 C 981.515625 865.519531 960.90625 891.773438 941.070312 919.035156 C 932.582031 913.695312 921.34375 909.195312 906.519531 906.425781 C 877.730469 901.175781 848.984375 895.945312 820.21875 890.71875 C 820.328125 890.804688 801.414062 887.160156 780.542969 894.234375 C 772.691406 856.996094 766.160156 818.988281 761.125 780.234375 L 760.839844 778.804688 C 760.773438 778.277344 760.816406 777.75 760.75 777.203125 C 753.957031 725.640625 749.753906 672.78125 748.347656 618.871094 C 747.953125 600.945312 736.890625 589.191406 723.210938 593.058594 C 722.152344 593.363281 721.097656 593.671875 720.019531 593.980469 C 706.363281 597.847656 695.433594 616.257812 696.070312 634.644531 C 698.09375 689.742188 702.953125 743.722656 710.410156 796.425781 C 710.496094 796.953125 710.652344 797.414062 710.738281 797.917969 C 710.804688 798.445312 710.761719 798.972656 710.847656 799.5 C 718.480469 854.203125 728.949219 907.5 741.96875 959.195312 C 744.785156 970.398438 752.527344 977.253906 761.191406 978.066406 C 751.644531 1055.949219 747.972656 1134.398438 750.171875 1212.742188 L 750.238281 1213.53125 L 750.214844 1214.542969 C 755.097656 1364.921875 781.621094 1514.773438 829.785156 1659.355469 C 836.449219 1679.390625 857.191406 1690.066406 875.507812 1683.386719 C 876.9375 1682.882812 878.347656 1682.378906 879.777344 1681.851562 C 898.097656 1675.171875 907.421875 1654.542969 901.132812 1635.625 C 861.058594 1515.390625 836.734375 1391.351562 828.113281 1266.457031 C 833.4375 1266.128906 838.757812 1265.796875 844.082031 1265.445312 C 852.59375 1388.957031 876.652344 1511.675781 916.285156 1630.597656 C 922.550781 1649.46875 941.992188 1659.574219 959.148438 1653.3125 C 960.488281 1652.828125 961.808594 1652.34375 963.152344 1651.882812 C 980.304688 1645.621094 988.992188 1626.203125 983.054688 1608.386719 C 939.839844 1478.679688 916.042969 1344.25 911.6875 1209.335938 L 911.601562 1208.765625 L 911.621094 1207.710938 C 909.378906 1135.695312 912.722656 1063.550781 921.539062 991.929688 C 922.066406 992.367188 922.597656 992.808594 923.125 993.226562 C 933.546875 1001.773438 948.238281 998.71875 956.113281 986.964844 C 982.261719 947.925781 1010.105469 910.996094 1039.355469 876.238281 L 1040.058594 875.207031 L 1041.003906 874.285156 C 1068.363281 841.617188 1097 810.925781 1126.667969 782.167969 C 1151.738281 809.519531 1176.019531 838.210938 1199.289062 868.351562 L 1200.144531 869.296875 L 1200.828125 870.375 C 1228.1875 906.273438 1254.160156 944.082031 1278.527344 983.667969 C 1283.785156 992.214844 1292.734375 996.410156 1301.355469 995.269531 C 1306.875 1047.863281 1309.558594 1100.65625 1309.539062 1153.425781 C 1295.15625 1220.605469 1276.328125 1285.832031 1253.347656 1348.6875 C 1267.75 1350.578125 1282.136719 1352.464844 1296.519531 1354.355469 C 1285.984375 1434.433594 1269.003906 1513.875 1245.515625 1591.886719 C 1240.261719 1609.351562 1250.664062 1628.398438 1269.179688 1634.484375 C 1270.609375 1634.945312 1272.0625 1635.429688 1273.492188 1635.890625 C 1292.007812 1641.996094 1311.933594 1632.023438 1317.519531 1613.503906 C 1342.175781 1531.601562 1359.988281 1448.207031 1371.050781 1364.152344 C 1376.351562 1364.835938 1381.628906 1365.539062 1386.910156 1366.21875 C 1375.734375 1451.152344 1357.722656 1535.382812 1332.804688 1618.09375 C 1327.242188 1636.660156 1336.367188 1656.210938 1353.742188 1661.925781 C 1355.085938 1662.363281 1356.425781 1662.800781 1357.769531 1663.242188 C 1375.121094 1668.953125 1394.34375 1657.859375 1400.214844 1638.351562 C 1426.210938 1551.988281 1445.015625 1464.046875 1456.667969 1375.402344 C 1468.875 1377.003906 1481.082031 1378.609375 1493.289062 1380.214844 C 1491.460938 1301.761719 1484.183594 1224.453125 1471.734375 1148.765625 L 1470.898438 1148.789062 C 1470.570312 1089.867188 1467.136719 1030.96875 1460.585938 972.332031 C 1461.222656 972.683594 1461.882812 973.035156 1462.542969 973.386719 C 1474.660156 979.914062 1488.382812 973.410156 1492.980469 958.425781 C 1508.199219 908.886719 1521.21875 857.808594 1531.839844 805.324219 L 1532.015625 803.828125 C 1532.148438 803.324219 1532.347656 802.882812 1532.433594 802.355469 C 1542.417969 751.628906 1550.160156 699.609375 1555.460938 646.441406 C 1557.308594 628.714844 1547.609375 610.214844 1534.195312 605.535156 C 1533.140625 605.160156 1532.105469 604.808594 1531.070312 604.4375 C 1517.632812 599.757812 1505.734375 610.347656 1504.152344 627.679688 C 1499.488281 679.855469 1492.386719 730.9375 1483.082031 780.71875 L 1482.929688 782.234375 L 1482.535156 783.640625 C 1475.519531 820 1467.269531 855.65625 1457.945312 890.609375 C 1448.203125 888.015625 1436.128906 887.355469 1421.21875 889.925781 C 1392.386719 894.695312 1363.53125 899.460938 1334.675781 904.230469 C 1334.566406 904.164062 1315.914062 907.523438 1298.210938 919.78125 C 1279.320312 891.222656 1259.636719 863.609375 1239.183594 837.023438 L 1238.324219 836.125 L 1237.597656 834.960938 C 1210.175781 799.785156 1181.453125 766.394531 1151.628906 734.867188 C 1147.230469 730.1875 1141.753906 727.574219 1136.210938 726.828125 C 1226.40625 528.972656 1465.511719 381.425781 1681.414062 437.449219 C 1823.246094 474.269531 1974.996094 612.71875 1997.5625 759.253906 C 2018.324219 894.210938 1992.4375 1033.867188 1933.410156 1156.015625 Z M 2143.570312 651.339844 C 2117.246094 480.265625 1940.070312 318.617188 1774.488281 275.644531 C 1512.089844 207.542969 1220.3125 396.960938 1125.875 642.113281 C 1031.417969 396.960938 739.636719 207.542969 477.261719 275.644531 C 311.65625 318.617188 134.503906 480.265625 108.179688 651.339844 C 83.898438 808.902344 114.117188 971.960938 183.066406 1114.5625 C 378.976562 1519.847656 738.097656 1851.320312 1125.875 2072.683594 C 1513.652344 1851.320312 1872.796875 1519.847656 2068.6875 1114.5625 C 2137.613281 971.960938 2167.828125 808.902344 2143.570312 651.339844 "/>
</g>
<path style=" stroke:none;fill-rule:nonzero;fill:rgb(79.998779%,71.369934%,47.839355%);fill-opacity:1;" d="M 860.355469 874.65625 C 901.375 882.28125 942.105469 848.625 955.101562 800.183594 C 967.945312 751.71875 949.539062 701.890625 910.191406 688.09375 C 870.914062 674.300781 823.828125 706.679688 809.265625 761.339844 C 794.640625 816 819.449219 867.078125 860.355469 874.65625 "/>
<path style=" stroke:none;fill-rule:nonzero;fill:rgb(79.998779%,71.369934%,47.839355%);fill-opacity:1;" d="M 1322.710938 693.917969 C 1282.949219 706.503906 1262.714844 754.75 1274.152344 802.3125 C 1285.71875 849.832031 1325.679688 883.203125 1366.828125 876.285156 C 1407.867188 869.363281 1433.753906 820.128906 1420.84375 766.921875 C 1408.023438 713.691406 1362.386719 681.351562 1322.710938 693.917969 "/>
<path style=" stroke:none;fill-rule:nonzero;fill:rgb(79.998779%,71.369934%,47.839355%);fill-opacity:1;" d="M 1103.203125 1184.710938 C 1130.847656 1184.710938 1153.277344 1161.203125 1153.277344 1132.179688 C 1153.277344 1103.179688 1130.847656 1079.675781 1103.203125 1079.675781 C 1075.535156 1079.675781 1053.125 1103.179688 1053.125 1132.179688 C 1053.125 1161.203125 1075.535156 1184.710938 1103.203125 1184.710938 "/>
<path style=" stroke:none;fill-rule:nonzero;fill:rgb(79.998779%,71.369934%,47.839355%);fill-opacity:1;" d="M 1254.664062 1068.492188 L 1252.90625 1067.527344 C 1245.386719 1063.351562 1235.6875 1066.449219 1231.242188 1074.445312 L 1191.414062 1146.679688 L 1191.085938 1147.425781 L 1190.644531 1148.085938 L 1161.21875 1200.902344 C 1155.058594 1198.703125 1147.296875 1197.253906 1137.222656 1197.277344 L 1079.007812 1197.277344 C 1079.007812 1197.277344 1066.339844 1197.277344 1053.496094 1202.789062 L 1025.28125 1147.648438 L 1024.839844 1146.964844 L 1024.554688 1146.21875 L 986.683594 1072.953125 C 982.503906 1064.800781 972.914062 1061.375 965.242188 1065.304688 L 963.457031 1066.207031 C 955.785156 1070.117188 952.96875 1079.917969 957.148438 1088.042969 L 995.019531 1161.3125 L 995.4375 1161.972656 L 995.746094 1162.738281 L 1034.695312 1238.90625 C 1037.507812 1244.378906 1043.09375 1247.429688 1048.878906 1247.320312 L 1048.570312 1301.804688 L 1019.496094 1421.777344 L 1048.417969 1421.777344 L 1048.417969 1565.523438 C 1048.417969 1576.308594 1058.90625 1585.054688 1071.863281 1585.054688 L 1074.851562 1585.054688 C 1087.804688 1585.054688 1098.296875 1576.308594 1098.296875 1565.523438 L 1098.296875 1421.777344 L 1108.917969 1421.777344 L 1108.917969 1565.523438 C 1108.917969 1576.308594 1118.75 1585.054688 1130.847656 1585.054688 L 1133.683594 1585.054688 C 1145.800781 1585.054688 1155.632812 1576.308594 1155.632812 1565.523438 L 1155.632812 1421.777344 L 1180.089844 1421.777344 L 1156.136719 1299.851562 L 1155.632812 1299.851562 L 1155.632812 1244.289062 L 1156.820312 1244.949219 C 1164.339844 1249.121094 1173.820312 1246.421875 1178.019531 1238.90625 L 1219.632812 1164.167969 L 1219.960938 1163.441406 L 1220.421875 1162.761719 L 1260.230469 1090.550781 C 1264.695312 1082.550781 1262.1875 1072.667969 1254.664062 1068.492188 "/>
</g>
</svg>
