<?xml version="1.0" encoding="UTF-8"?>
<svg xmlns="http://www.w3.org/2000/svg" xmlns:xlink="http://www.w3.org/1999/xlink" width="2250pt" height="2250.000011pt" viewBox="0 0 2250 2250.000011" version="1.2">
<defs>
<clipPath id="clip1">
  <path d="M 439 344.300781 L 576 344.300781 L 576 702 L 439 702 Z M 439 344.300781 "/>
</clipPath>
<clipPath id="clip2">
  <path d="M 1395 344.300781 L 1532 344.300781 L 1532 702 L 1395 702 Z M 1395 344.300781 "/>
</clipPath>
<clipPath id="clip3">
  <path d="M 648 458 L 2024.601562 458 L 2024.601562 1904.359375 L 648 1904.359375 Z M 648 458 "/>
</clipPath>
</defs>
<g id="surface1">
<path style=" stroke:none;fill-rule:nonzero;fill:rgb(28.62854%,43.919373%,32.548523%);fill-opacity:1;" d="M 1743.714844 1821.199219 C 1743.714844 1866.839844 1706.757812 1903.789062 1661.1875 1903.789062 L 309.953125 1903.789062 C 264.386719 1903.789062 227.425781 1866.839844 227.425781 1821.199219 L 227.425781 648.679688 C 227.425781 603.121094 264.386719 566.167969 309.953125 566.167969 L 1661.1875 566.167969 C 1706.757812 566.167969 1743.714844 603.121094 1743.714844 648.679688 L 1743.714844 1821.199219 "/>
<path style=" stroke:none;fill-rule:nonzero;fill:rgb(90.19928%,92.549133%,93.328857%);fill-opacity:1;" d="M 1743.714844 1732.839844 C 1743.714844 1778.398438 1706.757812 1815.351562 1661.1875 1815.351562 L 309.953125 1815.351562 C 264.386719 1815.351562 227.425781 1778.402344 227.425781 1732.839844 L 227.425781 560.242188 C 227.425781 514.679688 264.386719 477.730469 309.953125 477.730469 L 1661.1875 477.730469 C 1706.757812 477.730469 1743.714844 514.679688 1743.714844 560.242188 L 1743.714844 1732.839844 "/>
<path style=" stroke:none;fill-rule:nonzero;fill:rgb(79.998779%,71.369934%,47.839355%);fill-opacity:1;" d="M 1743.714844 878.992188 L 1743.714844 560.242188 C 1743.714844 514.679688 1706.757812 477.730469 1661.1875 477.730469 L 309.953125 477.730469 C 264.386719 477.730469 227.425781 514.679688 227.425781 560.242188 L 227.425781 878.992188 L 1743.714844 878.992188 "/>
<path style=" stroke:none;fill-rule:nonzero;fill:rgb(28.62854%,43.919373%,32.548523%);fill-opacity:1;" d="M 535.605469 1093.226562 L 371.6875 1093.226562 L 371.6875 979.125 L 535.605469 979.125 L 535.605469 1093.226562 "/>
<path style=" stroke:none;fill-rule:nonzero;fill:rgb(28.62854%,43.919373%,32.548523%);fill-opacity:1;" d="M 801.546875 1093.226562 L 637.710938 1093.226562 L 637.710938 979.125 L 801.546875 979.125 L 801.546875 1093.226562 "/>
<path style=" stroke:none;fill-rule:nonzero;fill:rgb(28.62854%,43.919373%,32.548523%);fill-opacity:1;" d="M 1067.492188 1093.226562 L 903.652344 1093.226562 L 903.652344 979.125 L 1067.492188 979.125 L 1067.492188 1093.226562 "/>
<path style=" stroke:none;fill-rule:nonzero;fill:rgb(28.62854%,43.919373%,32.548523%);fill-opacity:1;" d="M 1333.511719 1093.226562 L 1169.59375 1093.226562 L 1169.59375 979.125 L 1333.511719 979.125 L 1333.511719 1093.226562 "/>
<path style=" stroke:none;fill-rule:nonzero;fill:rgb(28.62854%,43.919373%,32.548523%);fill-opacity:1;" d="M 1599.453125 1093.226562 L 1435.535156 1093.226562 L 1435.535156 979.125 L 1599.453125 979.125 L 1599.453125 1093.226562 "/>
<path style=" stroke:none;fill-rule:nonzero;fill:rgb(28.62854%,43.919373%,32.548523%);fill-opacity:1;" d="M 535.605469 1281.066406 L 371.6875 1281.066406 L 371.6875 1166.964844 L 535.605469 1166.964844 L 535.605469 1281.066406 "/>
<path style=" stroke:none;fill-rule:nonzero;fill:rgb(28.62854%,43.919373%,32.548523%);fill-opacity:1;" d="M 801.546875 1281.066406 L 637.710938 1281.066406 L 637.710938 1166.964844 L 801.546875 1166.964844 L 801.546875 1281.066406 "/>
<path style=" stroke:none;fill-rule:nonzero;fill:rgb(79.998779%,71.369934%,47.839355%);fill-opacity:1;" d="M 1067.492188 1281.066406 L 903.652344 1281.066406 L 903.652344 1166.964844 L 1067.492188 1166.964844 L 1067.492188 1281.066406 "/>
<path style=" stroke:none;fill-rule:nonzero;fill:rgb(28.62854%,43.919373%,32.548523%);fill-opacity:1;" d="M 1333.511719 1281.066406 L 1169.59375 1281.066406 L 1169.59375 1166.964844 L 1333.511719 1166.964844 L 1333.511719 1281.066406 "/>
<path style=" stroke:none;fill-rule:nonzero;fill:rgb(28.62854%,43.919373%,32.548523%);fill-opacity:1;" d="M 1599.453125 1281.066406 L 1435.535156 1281.066406 L 1435.535156 1166.964844 L 1599.453125 1166.964844 L 1599.453125 1281.066406 "/>
<path style=" stroke:none;fill-rule:nonzero;fill:rgb(28.62854%,43.919373%,32.548523%);fill-opacity:1;" d="M 535.605469 1468.988281 L 371.6875 1468.988281 L 371.6875 1354.886719 L 535.605469 1354.886719 L 535.605469 1468.988281 "/>
<path style=" stroke:none;fill-rule:nonzero;fill:rgb(28.62854%,43.919373%,32.548523%);fill-opacity:1;" d="M 801.546875 1468.988281 L 637.710938 1468.988281 L 637.710938 1354.886719 L 801.546875 1354.886719 L 801.546875 1468.988281 "/>
<path style=" stroke:none;fill-rule:nonzero;fill:rgb(28.62854%,43.919373%,32.548523%);fill-opacity:1;" d="M 1067.492188 1468.988281 L 903.652344 1468.988281 L 903.652344 1354.886719 L 1067.492188 1354.886719 L 1067.492188 1468.988281 "/>
<path style=" stroke:none;fill-rule:nonzero;fill:rgb(28.62854%,43.919373%,32.548523%);fill-opacity:1;" d="M 1333.511719 1468.988281 L 1169.59375 1468.988281 L 1169.59375 1354.886719 L 1333.511719 1354.886719 L 1333.511719 1468.988281 "/>
<path style=" stroke:none;fill-rule:nonzero;fill:rgb(28.62854%,43.919373%,32.548523%);fill-opacity:1;" d="M 1599.453125 1468.988281 L 1435.535156 1468.988281 L 1435.535156 1354.886719 L 1599.453125 1354.886719 L 1599.453125 1468.988281 "/>
<path style=" stroke:none;fill-rule:nonzero;fill:rgb(28.62854%,43.919373%,32.548523%);fill-opacity:1;" d="M 535.605469 1656.828125 L 371.6875 1656.828125 L 371.6875 1542.726562 L 535.605469 1542.726562 L 535.605469 1656.828125 "/>
<path style=" stroke:none;fill-rule:nonzero;fill:rgb(28.62854%,43.919373%,32.548523%);fill-opacity:1;" d="M 801.546875 1656.828125 L 637.710938 1656.828125 L 637.710938 1542.726562 L 801.546875 1542.726562 L 801.546875 1656.828125 "/>
<path style=" stroke:none;fill-rule:nonzero;fill:rgb(28.62854%,43.919373%,32.548523%);fill-opacity:1;" d="M 1067.492188 1656.828125 L 903.652344 1656.828125 L 903.652344 1542.726562 L 1067.492188 1542.726562 L 1067.492188 1656.828125 "/>
<path style=" stroke:none;fill-rule:nonzero;fill:rgb(28.62854%,43.919373%,32.548523%);fill-opacity:1;" d="M 1333.511719 1656.828125 L 1169.59375 1656.828125 L 1169.59375 1542.726562 L 1333.511719 1542.726562 L 1333.511719 1656.828125 "/>
<path style=" stroke:none;fill-rule:nonzero;fill:rgb(28.62854%,43.919373%,32.548523%);fill-opacity:1;" d="M 1599.453125 1656.828125 L 1435.535156 1656.828125 L 1435.535156 1542.726562 L 1599.453125 1542.726562 L 1599.453125 1656.828125 "/>
<g clip-path="url(#clip1)" clip-rule="nonzero">
<path style=" stroke:none;fill-rule:nonzero;fill:rgb(28.62854%,43.919373%,32.548523%);fill-opacity:1;" d="M 575.164062 633.65625 C 575.164062 671.09375 544.867188 701.386719 507.421875 701.386719 C 470.054688 701.386719 439.757812 671.09375 439.757812 633.65625 L 439.757812 411.707031 C 439.757812 374.347656 470.054688 344.058594 507.421875 344.058594 C 544.867188 344.058594 575.164062 374.347656 575.164062 411.707031 L 575.164062 633.65625 "/>
</g>
<g clip-path="url(#clip2)" clip-rule="nonzero">
<path style=" stroke:none;fill-rule:nonzero;fill:rgb(28.62854%,43.919373%,32.548523%);fill-opacity:1;" d="M 1531.386719 633.65625 C 1531.386719 671.09375 1501.085938 701.386719 1463.722656 701.386719 C 1426.355469 701.386719 1395.976562 671.09375 1395.976562 633.65625 L 1395.976562 411.707031 C 1395.976562 374.347656 1426.355469 344.058594 1463.722656 344.058594 C 1501.085938 344.058594 1531.386719 374.347656 1531.386719 411.707031 L 1531.386719 633.65625 "/>
</g>
<path style=" stroke:none;fill-rule:nonzero;fill:rgb(28.62854%,43.919373%,32.548523%);fill-opacity:1;" d="M 2022.574219 1490.347656 C 2022.574219 1644.320312 1897.726562 1769.140625 1743.714844 1769.140625 C 1589.707031 1769.140625 1464.859375 1644.320312 1464.859375 1490.347656 C 1464.859375 1336.371094 1589.707031 1211.550781 1743.714844 1211.550781 C 1897.726562 1211.550781 2022.574219 1336.371094 2022.574219 1490.347656 "/>
<g clip-path="url(#clip3)" clip-rule="nonzero">
<path style="fill:none;stroke-width:80;stroke-linecap:butt;stroke-linejoin:miter;stroke:rgb(100%,100%,100%);stroke-opacity:1;stroke-miterlimit:10;" d="M 2671.102197 1678.30013 L 2817.299848 1535.20198 L 3104.400467 1814.500708 " transform="matrix(0.812283,0,0,-0.812106,-601.914298,2850.462347)"/>
</g>
</g>
</svg>
