<?xml version="1.0" encoding="UTF-8"?>
<svg xmlns="http://www.w3.org/2000/svg" xmlns:xlink="http://www.w3.org/1999/xlink" width="2250pt" height="2250.000011pt" viewBox="0 0 2250 2250.000011" version="1.2">
<defs>
<clipPath id="clip1">
  <path d="M 357 1419 L 1390 1419 L 1390 2026.664062 L 357 2026.664062 Z M 357 1419 "/>
</clipPath>
<clipPath id="clip2">
  <path d="M 1208 224.898438 L 1917 224.898438 L 1917 998 L 1208 998 Z M 1208 224.898438 "/>
</clipPath>
<clipPath id="clip3">
  <path d="M 338 1419 L 1371 1419 L 1371 2026.664062 L 338 2026.664062 Z M 338 1419 "/>
</clipPath>
<clipPath id="clip4">
  <path d="M 1189 224.898438 L 1897 224.898438 L 1897 998 L 1189 998 Z M 1189 224.898438 "/>
</clipPath>
</defs>
<g id="surface1">
<path style=" stroke:none;fill-rule:nonzero;fill:rgb(28.62854%,43.919373%,32.548523%);fill-opacity:1;" d="M 1046.25 1031.179688 C 1046.25 1040.109375 1039.011719 1047.355469 1030.128906 1047.355469 L 940.285156 1047.355469 C 931.40625 1047.355469 924.167969 1040.109375 924.167969 1031.179688 L 924.167969 996.59375 C 924.167969 987.699219 931.40625 980.453125 940.285156 980.453125 L 1030.128906 980.453125 C 1039.011719 980.453125 1046.25 987.699219 1046.25 996.59375 Z M 822.808594 1031.179688 C 822.808594 1040.109375 815.609375 1047.355469 806.691406 1047.355469 L 716.882812 1047.355469 C 707.964844 1047.355469 700.765625 1040.109375 700.765625 1031.179688 L 700.765625 996.59375 C 700.765625 987.699219 707.964844 980.453125 716.882812 980.453125 L 806.691406 980.453125 C 815.609375 980.453125 822.808594 987.699219 822.808594 996.59375 Z M 1030.128906 957.394531 L 940.285156 957.394531 C 918.683594 957.394531 901.140625 974.925781 901.140625 996.59375 L 901.140625 1001.203125 L 845.875 1001.203125 L 845.875 996.59375 C 845.875 974.925781 828.328125 957.394531 806.691406 957.394531 L 716.882812 957.394531 C 695.246094 957.394531 677.738281 974.925781 677.738281 996.59375 L 677.738281 1031.179688 C 677.738281 1052.847656 695.246094 1070.414062 716.882812 1070.414062 L 806.691406 1070.414062 C 828.328125 1070.414062 845.875 1052.847656 845.875 1031.179688 L 845.875 1024.261719 L 901.140625 1024.261719 L 901.140625 1031.179688 C 901.140625 1052.847656 918.683594 1070.414062 940.285156 1070.414062 L 1030.128906 1070.414062 C 1051.730469 1070.414062 1069.277344 1052.847656 1069.277344 1031.179688 L 1069.277344 996.59375 C 1069.277344 974.925781 1051.730469 957.394531 1030.128906 957.394531 "/>
<path style=" stroke:none;fill-rule:nonzero;fill:rgb(28.62854%,43.919373%,32.548523%);fill-opacity:1;" d="M 998.621094 1262.597656 C 965.324219 1296.453125 920.878906 1315.121094 873.507812 1315.121094 C 826.136719 1315.121094 781.6875 1296.453125 748.355469 1262.597656 C 696.449219 1209.859375 647.363281 1097.351562 647.363281 1031.140625 C 647.363281 1006.179688 650.542969 982.207031 656.535156 959.625 C 775.035156 844.519531 926.6875 820.765625 988.097656 815.898438 C 1055.3125 858.5 1099.652344 938.070312 1099.652344 1031.140625 C 1099.652344 1097.351562 1050.5625 1209.859375 998.621094 1262.597656 Z M 1154.769531 991.359375 L 1148.558594 991.359375 C 1160.65625 926.101562 1152.46875 866.773438 1139.238281 820.472656 C 1116.832031 741.859375 1061.601562 676.234375 986.597656 643.953125 C 817.546875 571.121094 687.386719 721.472656 687.386719 721.472656 C 687.386719 721.472656 630.839844 737.90625 603.5 796.390625 C 583.359375 839.394531 592.863281 940.8125 599.261719 991.359375 L 592.242188 991.359375 C 576.78125 991.359375 564.242188 1003.875 564.242188 1019.355469 L 564.242188 1054.382812 C 564.242188 1082.234375 586.101562 1104.964844 613.589844 1106.390625 C 632.632812 1174.6875 672.328125 1250.410156 715.859375 1294.660156 C 757.859375 1337.300781 813.816406 1360.796875 873.507812 1360.796875 C 933.195312 1360.796875 989.15625 1337.300781 1031.117188 1294.660156 C 1074.6875 1250.410156 1114.382812 1174.6875 1133.425781 1106.390625 C 1160.875 1104.964844 1182.734375 1082.234375 1182.734375 1054.382812 L 1182.734375 1019.355469 C 1182.734375 1003.875 1170.234375 991.359375 1154.769531 991.359375 "/>
<g clip-path="url(#clip1)" clip-rule="nonzero">
<path style=" stroke:none;fill-rule:nonzero;fill:rgb(28.62854%,43.919373%,32.548523%);fill-opacity:1;" d="M 669.367188 1658.644531 C 650.945312 1722.367188 576.707031 1748.828125 522.210938 1711.09375 C 488.910156 1688.035156 473.742188 1644.410156 485.4375 1605.613281 C 489.53125 1591.996094 496.183594 1580.175781 504.628906 1570.292969 L 519.539062 1602.097656 C 519.101562 1602.941406 518.664062 1603.820312 518.226562 1604.699219 C 507.113281 1628.195312 509.855469 1656.375 527.472656 1675.519531 C 565.230469 1716.546875 628.390625 1698.210938 640.820312 1647.738281 C 647.179688 1621.863281 636.175781 1593.609375 614.136719 1578.710938 C 605.765625 1573.039062 596.664062 1569.5625 587.492188 1568.132812 L 572.871094 1536.988281 C 593.8125 1536 615.527344 1541.929688 634.679688 1555.984375 C 666.1875 1579.152344 680.222656 1621.058594 669.367188 1658.644531 Z M 982.90625 1752.488281 L 1013.425781 1752.488281 C 1013.390625 1753.511719 1013.390625 1869.019531 1013.390625 1869.019531 C 1013.390625 1893.324219 1030.789062 1913.636719 1053.777344 1918.101562 C 1056.921875 1914.515625 1061.492188 1912.28125 1066.644531 1912.28125 L 1083.019531 1912.28125 C 1083.019531 1905.839844 1088.246094 1900.605469 1094.71875 1900.605469 L 1106.488281 1900.605469 C 1118.511719 1900.605469 1128.234375 1910.34375 1128.234375 1922.347656 L 1128.234375 1945.992188 C 1128.234375 1957.996094 1118.511719 1967.730469 1106.488281 1967.730469 L 1094.71875 1967.730469 C 1088.246094 1967.730469 1083.019531 1962.496094 1083.019531 1956.054688 L 1066.644531 1956.054688 C 1060.871094 1956.054688 1055.789062 1953.199219 1052.683594 1948.84375 C 1013.351562 1943.648438 982.871094 1909.832031 982.871094 1869.019531 C 982.871094 1869.019531 982.90625 1753.511719 982.90625 1752.488281 Z M 1158.207031 1922.347656 C 1158.207031 1910.34375 1167.929688 1900.605469 1179.957031 1900.605469 L 1191.761719 1900.605469 C 1198.195312 1900.605469 1203.421875 1905.839844 1203.421875 1912.28125 L 1219.796875 1912.28125 C 1224.949219 1912.28125 1229.519531 1914.515625 1232.664062 1918.101562 C 1255.652344 1913.636719 1273.050781 1893.324219 1273.050781 1869.019531 C 1273.050781 1869.019531 1273.050781 1753.511719 1273.015625 1752.488281 L 1303.535156 1752.488281 C 1303.535156 1753.511719 1303.574219 1869.019531 1303.574219 1869.019531 C 1303.574219 1909.832031 1273.089844 1943.648438 1233.757812 1948.84375 C 1230.652344 1953.199219 1225.570312 1956.054688 1219.796875 1956.054688 L 1203.421875 1956.054688 C 1203.421875 1962.496094 1198.195312 1967.730469 1191.761719 1967.730469 L 1179.957031 1967.730469 C 1167.964844 1967.730469 1158.207031 1957.996094 1158.207031 1945.953125 Z M 1388.921875 1958.25 C 1375.800781 1873.597656 1350.652344 1727.488281 1334.421875 1601.476562 C 1325.320312 1530.800781 1272.980469 1473.488281 1203.457031 1458.226562 L 1161.132812 1448.890625 L 1161.132812 1508.402344 C 1161.132812 1547.125 1181.601562 1584.128906 1216.398438 1601.039062 C 1267.351562 1625.851562 1304.011719 1675.703125 1310.226562 1734.554688 L 1261.867188 1734.554688 C 1253.242188 1676.761719 1203.3125 1632.257812 1143.222656 1632.257812 C 1083.128906 1632.257812 1033.199219 1676.761719 1024.574219 1734.554688 L 976.214844 1734.554688 C 982.429688 1675.703125 1019.09375 1625.851562 1070.082031 1601.039062 C 1104.84375 1584.128906 1125.347656 1547.089844 1125.347656 1508.402344 L 1125.347656 1441.023438 L 1026.621094 1419.320312 L 941.96875 1653.300781 C 941.96875 1653.300781 912.652344 1567 912.472656 1566.085938 C 912.140625 1549.613281 920.4375 1534.902344 927.75 1522.496094 C 936.703125 1507.269531 942.078125 1497.167969 937.65625 1486.1875 C 937.105469 1485.382812 880.085938 1422.246094 880.085938 1422.246094 C 878.40625 1420.382812 875.992188 1419.320312 873.46875 1419.320312 L 873.398438 1419.320312 C 870.875 1419.320312 868.460938 1420.417969 866.78125 1422.246094 C 866.78125 1422.246094 809.796875 1485.347656 809.285156 1486.152344 C 804.753906 1497.132812 810.164062 1507.269531 819.15625 1522.496094 C 826.609375 1535.085938 835.019531 1549.285156 834.398438 1566.121094 C 834.398438 1566.597656 805.628906 1653.777344 805.628906 1653.777344 L 720.867188 1419.464844 L 543.957031 1458.410156 C 536.941406 1459.945312 530.140625 1461.957031 523.488281 1464.300781 C 525.609375 1470.890625 579.265625 1586.359375 579.265625 1586.359375 C 585.261719 1586.617188 591.292969 1588.042969 597.066406 1590.789062 C 623.164062 1603.160156 632.375 1636.941406 613.734375 1661.316406 C 603.464844 1674.675781 585.773438 1681.558594 569.25 1678.410156 C 537.964844 1672.480469 522.722656 1639.578125 535.40625 1612.824219 C 536.355469 1610.773438 537.453125 1608.871094 538.65625 1607.039062 C 538.65625 1607.039062 484.742188 1491.566406 482.585938 1485.675781 C 445.085938 1512.355469 419.207031 1553.898438 413.066406 1601.550781 C 396.835938 1727.453125 371.761719 1873.488281 358.605469 1958.214844 C 353.085938 1993.898438 380.570312 2026.109375 416.613281 2026.070312 L 1330.914062 2025.886719 C 1366.917969 2025.886719 1394.441406 1993.863281 1388.921875 1958.25 "/>
</g>
<path style=" stroke:none;fill-rule:nonzero;fill:rgb(28.62854%,43.919373%,32.548523%);fill-opacity:1;" d="M 1709.550781 615.476562 L 1602.234375 615.476562 L 1602.234375 722.933594 C 1602.234375 744.859375 1584.433594 762.683594 1562.578125 762.683594 C 1540.683594 762.683594 1522.882812 744.859375 1522.882812 722.933594 L 1522.882812 615.476562 L 1415.566406 615.476562 C 1393.671875 615.476562 1375.871094 597.65625 1375.871094 575.769531 C 1375.871094 553.84375 1393.671875 536.019531 1415.566406 536.019531 L 1522.882812 536.019531 L 1522.882812 428.5625 C 1522.882812 406.640625 1540.683594 388.816406 1562.578125 388.816406 C 1584.433594 388.816406 1602.234375 406.640625 1602.234375 428.5625 L 1602.234375 536.019531 L 1709.550781 536.019531 C 1731.445312 536.019531 1749.246094 553.84375 1749.246094 575.769531 C 1749.246094 597.65625 1731.445312 615.476562 1709.550781 615.476562 "/>
<g clip-path="url(#clip2)" clip-rule="nonzero">
<path style=" stroke:none;fill-rule:nonzero;fill:rgb(28.62854%,43.919373%,32.548523%);fill-opacity:1;" d="M 1562.578125 876.835938 C 1523.320312 876.835938 1479.640625 867.320312 1443.492188 852.023438 C 1412.972656 880.9375 1379.964844 907.984375 1348.238281 935.761719 C 1345.972656 937.777344 1343.414062 938.140625 1340.636719 936.898438 C 1337.894531 935.652344 1336.507812 933.457031 1336.507812 930.417969 L 1336.507812 772.417969 C 1335.738281 771.539062 1335.007812 770.660156 1334.277344 769.785156 C 1291.035156 718.03125 1264.972656 651.457031 1264.972656 578.878906 C 1264.972656 414.582031 1398.496094 280.917969 1562.578125 280.917969 C 1726.65625 280.917969 1860.144531 414.582031 1860.144531 578.878906 C 1860.144531 743.175781 1726.65625 876.835938 1562.578125 876.835938 Z M 1812.773438 328.316406 C 1745.957031 261.410156 1657.0625 224.554688 1562.578125 224.554688 C 1468.054688 224.554688 1379.160156 261.410156 1312.34375 328.316406 C 1245.527344 395.222656 1208.722656 484.230469 1208.722656 578.878906 C 1208.722656 654.75 1232.40625 727.035156 1276.230469 787.167969 L 1276.230469 930.417969 C 1276.230469 957.246094 1291.363281 980.78125 1315.746094 991.835938 C 1338.261719 1002.082031 1368.269531 998.421875 1387.933594 981.183594 L 1459.902344 918.121094 C 1492.765625 928.039062 1527.269531 933.164062 1562.578125 933.164062 C 1657.0625 933.164062 1745.957031 896.34375 1812.773438 829.402344 C 1879.625 762.464844 1916.398438 673.488281 1916.398438 578.878906 C 1916.398438 484.230469 1879.625 395.222656 1812.773438 328.316406 "/>
</g>
<path style=" stroke:none;fill-rule:nonzero;fill:rgb(79.998779%,71.369934%,47.839355%);fill-opacity:1;" d="M 1026.785156 1031.179688 C 1026.785156 1040.109375 1019.546875 1047.355469 1010.664062 1047.355469 L 920.820312 1047.355469 C 911.9375 1047.355469 904.703125 1040.109375 904.703125 1031.179688 L 904.703125 996.59375 C 904.703125 987.699219 911.9375 980.453125 920.820312 980.453125 L 1010.664062 980.453125 C 1019.546875 980.453125 1026.785156 987.699219 1026.785156 996.59375 Z M 803.34375 1031.179688 C 803.34375 1040.109375 796.144531 1047.355469 787.226562 1047.355469 L 697.417969 1047.355469 C 688.5 1047.355469 681.296875 1040.109375 681.296875 1031.179688 L 681.296875 996.59375 C 681.296875 987.699219 688.5 980.453125 697.417969 980.453125 L 787.226562 980.453125 C 796.144531 980.453125 803.34375 987.699219 803.34375 996.59375 Z M 1010.664062 957.394531 L 920.820312 957.394531 C 899.21875 957.394531 881.675781 974.925781 881.675781 996.59375 L 881.675781 1001.203125 L 826.40625 1001.203125 L 826.40625 996.59375 C 826.40625 974.925781 808.863281 957.394531 787.226562 957.394531 L 697.417969 957.394531 C 675.777344 957.394531 658.269531 974.925781 658.269531 996.59375 L 658.269531 1031.179688 C 658.269531 1052.847656 675.777344 1070.414062 697.417969 1070.414062 L 787.226562 1070.414062 C 808.863281 1070.414062 826.40625 1052.847656 826.40625 1031.179688 L 826.40625 1024.261719 L 881.675781 1024.261719 L 881.675781 1031.179688 C 881.675781 1052.847656 899.21875 1070.414062 920.820312 1070.414062 L 1010.664062 1070.414062 C 1032.265625 1070.414062 1049.8125 1052.847656 1049.8125 1031.179688 L 1049.8125 996.59375 C 1049.8125 974.925781 1032.265625 957.394531 1010.664062 957.394531 "/>
<path style=" stroke:none;fill-rule:nonzero;fill:rgb(79.998779%,71.369934%,47.839355%);fill-opacity:1;" d="M 979.15625 1262.597656 C 945.859375 1296.453125 901.410156 1315.121094 854.042969 1315.121094 C 806.671875 1315.121094 762.222656 1296.453125 728.886719 1262.597656 C 676.984375 1209.859375 627.894531 1097.351562 627.894531 1031.140625 C 627.894531 1006.179688 631.078125 982.207031 637.070312 959.625 C 755.570312 844.519531 907.222656 820.765625 968.628906 815.898438 C 1035.847656 858.5 1080.1875 938.070312 1080.1875 1031.140625 C 1080.1875 1097.351562 1031.097656 1209.859375 979.15625 1262.597656 Z M 1135.304688 991.359375 L 1129.09375 991.359375 C 1141.191406 926.101562 1133.003906 866.773438 1119.769531 820.472656 C 1097.363281 741.859375 1042.136719 676.234375 967.132812 643.953125 C 798.082031 571.121094 667.921875 721.472656 667.921875 721.472656 C 667.921875 721.472656 611.375 737.90625 584.035156 796.390625 C 563.894531 839.394531 573.398438 940.8125 579.792969 991.359375 L 572.777344 991.359375 C 557.316406 991.359375 544.777344 1003.875 544.777344 1019.355469 L 544.777344 1054.382812 C 544.777344 1082.234375 566.636719 1104.964844 594.121094 1106.390625 C 613.167969 1174.6875 652.859375 1250.410156 696.394531 1294.660156 C 738.390625 1337.300781 794.351562 1360.796875 854.042969 1360.796875 C 913.730469 1360.796875 969.691406 1337.300781 1011.652344 1294.660156 C 1055.222656 1250.410156 1094.917969 1174.6875 1113.960938 1106.390625 C 1141.410156 1104.964844 1163.269531 1082.234375 1163.269531 1054.382812 L 1163.269531 1019.355469 C 1163.269531 1003.875 1150.765625 991.359375 1135.304688 991.359375 "/>
<g clip-path="url(#clip3)" clip-rule="nonzero">
<path style=" stroke:none;fill-rule:nonzero;fill:rgb(79.998779%,71.369934%,47.839355%);fill-opacity:1;" d="M 649.902344 1658.644531 C 631.476562 1722.367188 557.242188 1748.828125 502.742188 1711.09375 C 469.445312 1688.035156 454.277344 1644.410156 465.972656 1605.613281 C 470.066406 1591.996094 476.71875 1580.175781 485.164062 1570.292969 L 500.074219 1602.097656 C 499.636719 1602.941406 499.199219 1603.820312 498.757812 1604.699219 C 487.648438 1628.195312 490.390625 1656.375 508.007812 1675.519531 C 545.765625 1716.546875 608.925781 1698.210938 621.355469 1647.738281 C 627.714844 1621.863281 616.710938 1593.609375 594.671875 1578.710938 C 586.300781 1573.039062 577.199219 1569.5625 568.023438 1568.132812 L 553.402344 1536.988281 C 574.347656 1536 596.058594 1541.929688 615.214844 1555.984375 C 646.71875 1579.152344 660.757812 1621.058594 649.902344 1658.644531 Z M 963.441406 1752.488281 L 993.960938 1752.488281 C 993.925781 1753.511719 993.925781 1869.019531 993.925781 1869.019531 C 993.925781 1893.324219 1011.324219 1913.636719 1034.3125 1918.101562 C 1037.457031 1914.515625 1042.027344 1912.28125 1047.179688 1912.28125 L 1063.554688 1912.28125 C 1063.554688 1905.839844 1068.78125 1900.605469 1075.25 1900.605469 L 1087.019531 1900.605469 C 1099.046875 1900.605469 1108.769531 1910.34375 1108.769531 1922.347656 L 1108.769531 1945.992188 C 1108.769531 1957.996094 1099.046875 1967.730469 1087.019531 1967.730469 L 1075.25 1967.730469 C 1068.78125 1967.730469 1063.554688 1962.496094 1063.554688 1956.054688 L 1047.179688 1956.054688 C 1041.40625 1956.054688 1036.324219 1953.199219 1033.21875 1948.84375 C 993.886719 1943.648438 963.402344 1909.832031 963.402344 1869.019531 C 963.402344 1869.019531 963.441406 1753.511719 963.441406 1752.488281 Z M 1138.742188 1922.347656 C 1138.742188 1910.34375 1148.464844 1900.605469 1160.488281 1900.605469 L 1172.296875 1900.605469 C 1178.730469 1900.605469 1183.957031 1905.839844 1183.957031 1912.28125 L 1200.332031 1912.28125 C 1205.484375 1912.28125 1210.054688 1914.515625 1213.195312 1918.101562 C 1236.1875 1913.636719 1253.585938 1893.324219 1253.585938 1869.019531 C 1253.585938 1869.019531 1253.585938 1753.511719 1253.550781 1752.488281 L 1284.070312 1752.488281 C 1284.070312 1753.511719 1284.105469 1869.019531 1284.105469 1869.019531 C 1284.105469 1909.832031 1253.625 1943.648438 1214.292969 1948.84375 C 1211.1875 1953.199219 1206.105469 1956.054688 1200.332031 1956.054688 L 1183.957031 1956.054688 C 1183.957031 1962.496094 1178.730469 1967.730469 1172.296875 1967.730469 L 1160.488281 1967.730469 C 1148.5 1967.730469 1138.742188 1957.996094 1138.742188 1945.953125 Z M 1369.457031 1958.25 C 1356.332031 1873.597656 1331.1875 1727.488281 1314.957031 1601.476562 C 1305.855469 1530.800781 1253.515625 1473.488281 1183.992188 1458.226562 L 1141.664062 1448.890625 L 1141.664062 1508.402344 C 1141.664062 1547.125 1162.132812 1584.128906 1196.933594 1601.039062 C 1247.882812 1625.851562 1284.546875 1675.703125 1290.761719 1734.554688 L 1242.402344 1734.554688 C 1233.777344 1676.761719 1183.847656 1632.257812 1123.753906 1632.257812 C 1063.664062 1632.257812 1013.734375 1676.761719 1005.109375 1734.554688 L 956.75 1734.554688 C 962.964844 1675.703125 999.625 1625.851562 1050.617188 1601.039062 C 1085.375 1584.128906 1105.882812 1547.089844 1105.882812 1508.402344 L 1105.882812 1441.023438 L 1007.15625 1419.320312 L 922.503906 1653.300781 C 922.503906 1653.300781 893.1875 1567 893.003906 1566.085938 C 892.675781 1549.613281 900.972656 1534.902344 908.285156 1522.496094 C 917.238281 1507.269531 922.613281 1497.167969 918.1875 1486.1875 C 917.640625 1485.382812 860.621094 1422.246094 860.621094 1422.246094 C 858.9375 1420.382812 856.527344 1419.320312 854.003906 1419.320312 L 853.929688 1419.320312 C 851.410156 1419.320312 848.996094 1420.417969 847.316406 1422.246094 C 847.316406 1422.246094 790.332031 1485.347656 789.820312 1486.152344 C 785.289062 1497.132812 790.695312 1507.269531 799.6875 1522.496094 C 807.144531 1535.085938 815.550781 1549.285156 814.929688 1566.121094 C 814.929688 1566.597656 786.164062 1653.777344 786.164062 1653.777344 L 701.402344 1419.464844 L 524.492188 1458.410156 C 517.472656 1459.945312 510.675781 1461.957031 504.023438 1464.300781 C 506.144531 1470.890625 559.800781 1586.359375 559.800781 1586.359375 C 565.796875 1586.617188 571.828125 1588.042969 577.601562 1590.789062 C 603.699219 1603.160156 612.910156 1636.941406 594.269531 1661.316406 C 583.996094 1674.675781 566.308594 1681.558594 549.785156 1678.410156 C 518.496094 1672.480469 503.253906 1639.578125 515.9375 1612.824219 C 516.890625 1610.773438 517.984375 1608.871094 519.191406 1607.039062 C 519.191406 1607.039062 465.277344 1491.566406 463.121094 1485.675781 C 425.621094 1512.355469 399.742188 1553.898438 393.601562 1601.550781 C 377.371094 1727.453125 352.296875 1873.488281 339.136719 1958.214844 C 333.621094 1993.898438 361.105469 2026.109375 397.144531 2026.070312 L 1311.449219 2025.886719 C 1347.453125 2025.886719 1374.976562 1993.863281 1369.457031 1958.25 "/>
</g>
<path style=" stroke:none;fill-rule:nonzero;fill:rgb(79.998779%,71.369934%,47.839355%);fill-opacity:1;" d="M 1690.085938 615.476562 L 1582.769531 615.476562 L 1582.769531 722.933594 C 1582.769531 744.859375 1564.96875 762.683594 1543.113281 762.683594 C 1521.21875 762.683594 1503.417969 744.859375 1503.417969 722.933594 L 1503.417969 615.476562 L 1396.101562 615.476562 C 1374.207031 615.476562 1356.40625 597.65625 1356.40625 575.769531 C 1356.40625 553.84375 1374.207031 536.019531 1396.101562 536.019531 L 1503.417969 536.019531 L 1503.417969 428.5625 C 1503.417969 406.640625 1521.21875 388.816406 1543.113281 388.816406 C 1564.96875 388.816406 1582.769531 406.640625 1582.769531 428.5625 L 1582.769531 536.019531 L 1690.085938 536.019531 C 1711.980469 536.019531 1729.78125 553.84375 1729.78125 575.769531 C 1729.78125 597.65625 1711.980469 615.476562 1690.085938 615.476562 "/>
<g clip-path="url(#clip4)" clip-rule="nonzero">
<path style=" stroke:none;fill-rule:nonzero;fill:rgb(79.998779%,71.369934%,47.839355%);fill-opacity:1;" d="M 1543.113281 876.835938 C 1503.855469 876.835938 1460.175781 867.320312 1424.027344 852.023438 C 1393.507812 880.9375 1360.5 907.984375 1328.773438 935.761719 C 1326.507812 937.777344 1323.949219 938.140625 1321.171875 936.898438 C 1318.429688 935.652344 1317.039062 933.457031 1317.039062 930.417969 L 1317.039062 772.417969 C 1316.273438 771.539062 1315.542969 770.660156 1314.8125 769.785156 C 1271.570312 718.03125 1245.507812 651.457031 1245.507812 578.878906 C 1245.507812 414.582031 1379.03125 280.917969 1543.113281 280.917969 C 1707.191406 280.917969 1840.679688 414.582031 1840.679688 578.878906 C 1840.679688 743.175781 1707.191406 876.835938 1543.113281 876.835938 Z M 1793.308594 328.316406 C 1726.492188 261.410156 1637.597656 224.554688 1543.113281 224.554688 C 1448.589844 224.554688 1359.695312 261.410156 1292.878906 328.316406 C 1226.0625 395.222656 1189.257812 484.230469 1189.257812 578.878906 C 1189.257812 654.75 1212.941406 727.035156 1256.765625 787.167969 L 1256.765625 930.417969 C 1256.765625 957.246094 1271.898438 980.78125 1296.277344 991.835938 C 1318.792969 1002.082031 1348.804688 998.421875 1368.46875 981.183594 L 1440.4375 918.121094 C 1473.296875 928.039062 1507.804688 933.164062 1543.113281 933.164062 C 1637.597656 933.164062 1726.492188 896.34375 1793.308594 829.402344 C 1860.160156 762.464844 1896.929688 673.488281 1896.929688 578.878906 C 1896.929688 484.230469 1860.160156 395.222656 1793.308594 328.316406 "/>
</g>
</g>
</svg>
